<mxfile host="app.diagrams.net" agent="Mozilla/5.0 (Windows NT 10.0; Win64; x64) AppleWebKit/537.36 (KHTML, like Gecko) Chrome/137.0.0.0 Safari/537.36 OPR/121.0.0.0" version="28.2.5">
  <diagram name="Page-1" id="k21GBV-1dVLc4qdLin6J">
    <mxGraphModel dx="954" dy="557" grid="1" gridSize="10" guides="1" tooltips="1" connect="1" arrows="1" fold="1" page="1" pageScale="1" pageWidth="827" pageHeight="1169" math="0" shadow="0">
      <root>
        <mxCell id="0" />
        <mxCell id="1" parent="0" />
        <mxCell id="s_Zg2wAGJgHhH9_fCz9V-2" value="1" style="shape=parallelogram;perimeter=parallelogramPerimeter;whiteSpace=wrap;html=1;fixedSize=1;" vertex="1" parent="1">
          <mxGeometry x="120" y="880" width="80" height="40" as="geometry" />
        </mxCell>
        <mxCell id="s_Zg2wAGJgHhH9_fCz9V-3" value="2" style="shape=parallelogram;perimeter=parallelogramPerimeter;whiteSpace=wrap;html=1;fixedSize=1;" vertex="1" parent="1">
          <mxGeometry x="240" y="880" width="80" height="40" as="geometry" />
        </mxCell>
        <mxCell id="s_Zg2wAGJgHhH9_fCz9V-4" value="3" style="shape=parallelogram;perimeter=parallelogramPerimeter;whiteSpace=wrap;html=1;fixedSize=1;" vertex="1" parent="1">
          <mxGeometry x="360" y="880" width="80" height="40" as="geometry" />
        </mxCell>
        <mxCell id="s_Zg2wAGJgHhH9_fCz9V-5" value="4&lt;span style=&quot;color: rgba(0, 0, 0, 0); font-family: monospace; font-size: 0px; text-align: start; text-wrap-mode: nowrap;&quot;&gt;%3CmxGraphModel%3E%3Croot%3E%3CmxCell%20id%3D%220%22%2F%3E%3CmxCell%20id%3D%221%22%20parent%3D%220%22%2F%3E%3CmxCell%20id%3D%222%22%20value%3D%22%22%20style%3D%22shape%3Dparallelogram%3Bperimeter%3DparallelogramPerimeter%3BwhiteSpace%3Dwrap%3Bhtml%3D1%3BfixedSize%3D1%3B%22%20vertex%3D%221%22%20parent%3D%221%22%3E%3CmxGeometry%20x%3D%2240%22%20y%3D%22880%22%20width%3D%2280%22%20height%3D%2240%22%20as%3D%22geometry%22%2F%3E%3C%2FmxCell%3E%3C%2Froot%3E%3C%2FmxGraphModel%3E&lt;/span&gt;" style="shape=parallelogram;perimeter=parallelogramPerimeter;whiteSpace=wrap;html=1;fixedSize=1;" vertex="1" parent="1">
          <mxGeometry x="480" y="880" width="80" height="40" as="geometry" />
        </mxCell>
        <mxCell id="s_Zg2wAGJgHhH9_fCz9V-6" value="5" style="shape=parallelogram;perimeter=parallelogramPerimeter;whiteSpace=wrap;html=1;fixedSize=1;" vertex="1" parent="1">
          <mxGeometry x="600" y="880" width="80" height="40" as="geometry" />
        </mxCell>
        <mxCell id="s_Zg2wAGJgHhH9_fCz9V-7" value="Memory Value" style="text;html=1;align=center;verticalAlign=middle;whiteSpace=wrap;rounded=0;" vertex="1" parent="1">
          <mxGeometry x="340" y="920" width="120" height="30" as="geometry" />
        </mxCell>
        <mxCell id="s_Zg2wAGJgHhH9_fCz9V-8" value="Big Brain" style="text;html=1;align=center;verticalAlign=middle;whiteSpace=wrap;rounded=0;" vertex="1" parent="1">
          <mxGeometry x="600" y="920" width="60" height="30" as="geometry" />
        </mxCell>
        <mxCell id="s_Zg2wAGJgHhH9_fCz9V-9" value="No Idea" style="text;html=1;align=center;verticalAlign=middle;whiteSpace=wrap;rounded=0;" vertex="1" parent="1">
          <mxGeometry x="120" y="920" width="60" height="30" as="geometry" />
        </mxCell>
        <mxCell id="s_Zg2wAGJgHhH9_fCz9V-15" style="edgeStyle=none;curved=1;rounded=0;orthogonalLoop=1;jettySize=auto;html=1;exitX=0.5;exitY=1;exitDx=0;exitDy=0;entryX=0.5;entryY=0;entryDx=0;entryDy=0;fontSize=12;startSize=8;endSize=8;" edge="1" parent="1" source="s_Zg2wAGJgHhH9_fCz9V-11" target="s_Zg2wAGJgHhH9_fCz9V-13">
          <mxGeometry relative="1" as="geometry" />
        </mxCell>
        <mxCell id="s_Zg2wAGJgHhH9_fCz9V-11" value="Flashcard" style="rounded=1;whiteSpace=wrap;html=1;arcSize=50;" vertex="1" parent="1">
          <mxGeometry x="340" y="480" width="120" height="40" as="geometry" />
        </mxCell>
        <mxCell id="s_Zg2wAGJgHhH9_fCz9V-22" style="edgeStyle=none;curved=1;rounded=0;orthogonalLoop=1;jettySize=auto;html=1;entryX=0.5;entryY=0;entryDx=0;entryDy=0;fontSize=12;startSize=8;endSize=8;" edge="1" parent="1" source="s_Zg2wAGJgHhH9_fCz9V-13" target="s_Zg2wAGJgHhH9_fCz9V-16">
          <mxGeometry relative="1" as="geometry">
            <Array as="points">
              <mxPoint x="260" y="580" />
              <mxPoint x="150" y="530" />
              <mxPoint x="160" y="580" />
            </Array>
          </mxGeometry>
        </mxCell>
        <mxCell id="s_Zg2wAGJgHhH9_fCz9V-23" style="edgeStyle=none;curved=1;rounded=0;orthogonalLoop=1;jettySize=auto;html=1;exitX=0.25;exitY=1;exitDx=0;exitDy=0;entryX=0.5;entryY=0;entryDx=0;entryDy=0;fontSize=12;startSize=8;endSize=8;" edge="1" parent="1" source="s_Zg2wAGJgHhH9_fCz9V-13" target="s_Zg2wAGJgHhH9_fCz9V-17">
          <mxGeometry relative="1" as="geometry">
            <Array as="points">
              <mxPoint x="310" y="600" />
            </Array>
          </mxGeometry>
        </mxCell>
        <mxCell id="s_Zg2wAGJgHhH9_fCz9V-24" style="edgeStyle=none;curved=1;rounded=0;orthogonalLoop=1;jettySize=auto;html=1;exitX=0.75;exitY=1;exitDx=0;exitDy=0;entryX=0.5;entryY=0;entryDx=0;entryDy=0;fontSize=12;startSize=8;endSize=8;" edge="1" parent="1" source="s_Zg2wAGJgHhH9_fCz9V-13" target="s_Zg2wAGJgHhH9_fCz9V-18">
          <mxGeometry relative="1" as="geometry" />
        </mxCell>
        <mxCell id="s_Zg2wAGJgHhH9_fCz9V-26" style="edgeStyle=none;curved=1;rounded=0;orthogonalLoop=1;jettySize=auto;html=1;exitX=1;exitY=0.25;exitDx=0;exitDy=0;entryX=0.5;entryY=0;entryDx=0;entryDy=0;fontSize=12;startSize=8;endSize=8;" edge="1" parent="1" source="s_Zg2wAGJgHhH9_fCz9V-13" target="s_Zg2wAGJgHhH9_fCz9V-25">
          <mxGeometry relative="1" as="geometry">
            <Array as="points">
              <mxPoint x="780" y="500" />
            </Array>
          </mxGeometry>
        </mxCell>
        <mxCell id="s_Zg2wAGJgHhH9_fCz9V-27" style="edgeStyle=none;curved=1;rounded=0;orthogonalLoop=1;jettySize=auto;html=1;exitX=1;exitY=0.75;exitDx=0;exitDy=0;entryX=0.5;entryY=0;entryDx=0;entryDy=0;fontSize=12;startSize=8;endSize=8;" edge="1" parent="1" source="s_Zg2wAGJgHhH9_fCz9V-13" target="s_Zg2wAGJgHhH9_fCz9V-19">
          <mxGeometry relative="1" as="geometry">
            <Array as="points">
              <mxPoint x="580" y="600" />
            </Array>
          </mxGeometry>
        </mxCell>
        <mxCell id="s_Zg2wAGJgHhH9_fCz9V-13" value="Find Time Taken" style="rounded=0;whiteSpace=wrap;html=1;" vertex="1" parent="1">
          <mxGeometry x="340" y="560" width="120" height="40" as="geometry" />
        </mxCell>
        <mxCell id="s_Zg2wAGJgHhH9_fCz9V-28" style="edgeStyle=none;curved=1;rounded=0;orthogonalLoop=1;jettySize=auto;html=1;exitX=0.5;exitY=1;exitDx=0;exitDy=0;entryX=0.5;entryY=0;entryDx=0;entryDy=0;fontSize=12;startSize=8;endSize=8;" edge="1" parent="1" source="s_Zg2wAGJgHhH9_fCz9V-16" target="s_Zg2wAGJgHhH9_fCz9V-2">
          <mxGeometry relative="1" as="geometry" />
        </mxCell>
        <mxCell id="s_Zg2wAGJgHhH9_fCz9V-16" value="Give up" style="rounded=0;whiteSpace=wrap;html=1;" vertex="1" parent="1">
          <mxGeometry x="40" y="640" width="120" height="60" as="geometry" />
        </mxCell>
        <mxCell id="s_Zg2wAGJgHhH9_fCz9V-29" style="edgeStyle=none;curved=1;rounded=0;orthogonalLoop=1;jettySize=auto;html=1;exitX=0.5;exitY=1;exitDx=0;exitDy=0;entryX=0.5;entryY=0;entryDx=0;entryDy=0;fontSize=12;startSize=8;endSize=8;" edge="1" parent="1" source="s_Zg2wAGJgHhH9_fCz9V-17" target="s_Zg2wAGJgHhH9_fCz9V-3">
          <mxGeometry relative="1" as="geometry" />
        </mxCell>
        <mxCell id="s_Zg2wAGJgHhH9_fCz9V-17" value="&amp;gt;2m" style="rounded=0;whiteSpace=wrap;html=1;" vertex="1" parent="1">
          <mxGeometry x="200" y="640" width="120" height="60" as="geometry" />
        </mxCell>
        <mxCell id="s_Zg2wAGJgHhH9_fCz9V-35" style="edgeStyle=none;curved=1;rounded=0;orthogonalLoop=1;jettySize=auto;html=1;exitX=0.5;exitY=1;exitDx=0;exitDy=0;entryX=0.75;entryY=0;entryDx=0;entryDy=0;fontSize=12;startSize=8;endSize=8;" edge="1" parent="1" source="s_Zg2wAGJgHhH9_fCz9V-18" target="s_Zg2wAGJgHhH9_fCz9V-4">
          <mxGeometry relative="1" as="geometry" />
        </mxCell>
        <mxCell id="s_Zg2wAGJgHhH9_fCz9V-18" value="&amp;lt;1m" style="rounded=0;whiteSpace=wrap;html=1;" vertex="1" parent="1">
          <mxGeometry x="360" y="640" width="120" height="60" as="geometry" />
        </mxCell>
        <mxCell id="s_Zg2wAGJgHhH9_fCz9V-31" style="edgeStyle=none;curved=1;rounded=0;orthogonalLoop=1;jettySize=auto;html=1;exitX=0.5;exitY=1;exitDx=0;exitDy=0;entryX=0.75;entryY=0;entryDx=0;entryDy=0;fontSize=12;startSize=8;endSize=8;" edge="1" parent="1" source="s_Zg2wAGJgHhH9_fCz9V-19" target="s_Zg2wAGJgHhH9_fCz9V-5">
          <mxGeometry relative="1" as="geometry" />
        </mxCell>
        <mxCell id="s_Zg2wAGJgHhH9_fCz9V-19" value="&amp;lt;30s" style="rounded=0;whiteSpace=wrap;html=1;" vertex="1" parent="1">
          <mxGeometry x="520" y="640" width="120" height="60" as="geometry" />
        </mxCell>
        <mxCell id="s_Zg2wAGJgHhH9_fCz9V-32" style="edgeStyle=none;curved=1;rounded=0;orthogonalLoop=1;jettySize=auto;html=1;exitX=0.75;exitY=1;exitDx=0;exitDy=0;entryX=0.75;entryY=0;entryDx=0;entryDy=0;fontSize=12;startSize=8;endSize=8;" edge="1" parent="1" source="s_Zg2wAGJgHhH9_fCz9V-25" target="s_Zg2wAGJgHhH9_fCz9V-6">
          <mxGeometry relative="1" as="geometry" />
        </mxCell>
        <mxCell id="s_Zg2wAGJgHhH9_fCz9V-25" value="&amp;lt;10s" style="rounded=0;whiteSpace=wrap;html=1;" vertex="1" parent="1">
          <mxGeometry x="680" y="640" width="120" height="60" as="geometry" />
        </mxCell>
        <mxCell id="s_Zg2wAGJgHhH9_fCz9V-36" value="" style="shape=flexArrow;endArrow=classic;startArrow=classic;html=1;rounded=0;fontSize=12;startSize=8;endSize=8;curved=1;" edge="1" parent="1">
          <mxGeometry width="100" height="100" relative="1" as="geometry">
            <mxPoint x="120" y="990" as="sourcePoint" />
            <mxPoint x="680" y="990" as="targetPoint" />
          </mxGeometry>
        </mxCell>
        <mxCell id="s_Zg2wAGJgHhH9_fCz9V-37" value="Show more often" style="text;html=1;align=center;verticalAlign=middle;whiteSpace=wrap;rounded=0;" vertex="1" parent="1">
          <mxGeometry x="140" y="990" width="120" height="30" as="geometry" />
        </mxCell>
        <mxCell id="s_Zg2wAGJgHhH9_fCz9V-38" value="Show less often" style="text;html=1;align=center;verticalAlign=middle;whiteSpace=wrap;rounded=0;" vertex="1" parent="1">
          <mxGeometry x="543" y="990" width="120" height="30" as="geometry" />
        </mxCell>
      </root>
    </mxGraphModel>
  </diagram>
</mxfile>
